<svg width="50" height="50" viewBox="0 0 50 50" fill="none" xmlns="http://www.w3.org/2000/svg">
<g clip-path="url(#clip0)">
<path d="M25 31.25C28.4518 31.25 31.25 28.4518 31.25 25C31.25 21.5482 28.4518 18.75 25 18.75C21.5482 18.75 18.75 21.5482 18.75 25C18.75 28.4518 21.5482 31.25 25 31.25Z" stroke="#5D53F3" stroke-width="5" stroke-linecap="round" stroke-linejoin="round"/>
<path d="M40.4167 31.25C40.1393 31.8783 40.0566 32.5754 40.1792 33.2512C40.3017 33.927 40.6239 34.5506 41.1042 35.0416L41.2292 35.1666C41.6166 35.5536 41.9239 36.0132 42.1336 36.519C42.3433 37.0248 42.4512 37.567 42.4512 38.1146C42.4512 38.6621 42.3433 39.2043 42.1336 39.7101C41.9239 40.216 41.6166 40.6755 41.2292 41.0625C40.8422 41.4499 40.3827 41.7572 39.8768 41.9669C39.371 42.1766 38.8288 42.2845 38.2812 42.2845C37.7337 42.2845 37.1915 42.1766 36.6857 41.9669C36.1798 41.7572 35.7203 41.4499 35.3333 41.0625L35.2083 40.9375C34.7173 40.4572 34.0937 40.135 33.4179 40.0125C32.7421 39.8899 32.045 39.9727 31.4167 40.25C30.8005 40.5141 30.275 40.9526 29.9048 41.5115C29.5346 42.0704 29.336 42.7254 29.3333 43.3958V43.75C29.3333 44.855 28.8943 45.9149 28.1129 46.6963C27.3315 47.4777 26.2717 47.9166 25.1667 47.9166C24.0616 47.9166 23.0018 47.4777 22.2204 46.6963C21.439 45.9149 21 44.855 21 43.75V43.5625C20.9839 42.8729 20.7607 42.2041 20.3594 41.6431C19.9581 41.0821 19.3974 40.6547 18.75 40.4166C18.1216 40.1393 17.4246 40.0566 16.7488 40.1791C16.073 40.3017 15.4493 40.6239 14.9583 41.1041L14.8333 41.2291C14.4464 41.6165 13.9868 41.9239 13.481 42.1336C12.9752 42.3432 12.433 42.4512 11.8854 42.4512C11.3379 42.4512 10.7957 42.3432 10.2898 42.1336C9.78401 41.9239 9.32447 41.6165 8.9375 41.2291C8.5501 40.8422 8.24277 40.3826 8.03309 39.8768C7.8234 39.371 7.71547 38.8288 7.71547 38.2812C7.71547 37.7337 7.8234 37.1915 8.03309 36.6856C8.24277 36.1798 8.5501 35.7203 8.9375 35.3333L9.0625 35.2083C9.54279 34.7173 9.86497 34.0937 9.98751 33.4179C10.11 32.742 10.0273 32.045 9.75 31.4166C9.48591 30.8005 9.04741 30.2749 8.48847 29.9048C7.92953 29.5346 7.27456 29.336 6.60417 29.3333H6.25C5.14493 29.3333 4.08513 28.8943 3.30372 28.1129C2.52232 27.3315 2.08334 26.2717 2.08334 25.1666C2.08334 24.0616 2.52232 23.0018 3.30372 22.2204C4.08513 21.439 5.14493 21 6.25 21H6.4375C7.12707 20.9838 7.79584 20.7606 8.35687 20.3594C8.9179 19.9581 9.34524 19.3973 9.58333 18.75C9.86066 18.1216 9.94338 17.4246 9.82084 16.7488C9.6983 16.0729 9.37612 15.4493 8.89583 14.9583L8.77083 14.8333C8.38343 14.4463 8.0761 13.9868 7.86642 13.481C7.65674 12.9752 7.54881 12.433 7.54881 11.8854C7.54881 11.3378 7.65674 10.7956 7.86642 10.2898C8.0761 9.78399 8.38343 9.32445 8.77083 8.93748C9.15781 8.55008 9.61734 8.24275 10.1232 8.03306C10.629 7.82338 11.1712 7.71545 11.7188 7.71545C12.2663 7.71545 12.8085 7.82338 13.3143 8.03306C13.8202 8.24275 14.2797 8.55008 14.6667 8.93748L14.7917 9.06248C15.2827 9.54276 15.9063 9.86495 16.5821 9.98749C17.2579 10.11 17.955 10.0273 18.5833 9.74998H18.75C19.3662 9.48589 19.8917 9.04739 20.2619 8.48845C20.632 7.92951 20.8307 7.27453 20.8333 6.60415V6.24998C20.8333 5.14491 21.2723 4.0851 22.0537 3.3037C22.8351 2.5223 23.8949 2.08331 25 2.08331C26.1051 2.08331 27.1649 2.5223 27.9463 3.3037C28.7277 4.0851 29.1667 5.14491 29.1667 6.24998V6.43748C29.1693 7.10787 29.368 7.76284 29.7381 8.32178C30.1083 8.88072 30.6338 9.31922 31.25 9.58331C31.8784 9.86064 32.5754 9.94336 33.2512 9.82082C33.927 9.69828 34.5507 9.3761 35.0417 8.89581L35.1667 8.77081C35.5536 8.38341 36.0132 8.07608 36.519 7.8664C37.0248 7.65671 37.567 7.54879 38.1146 7.54879C38.6621 7.54879 39.2043 7.65671 39.7102 7.8664C40.216 8.07608 40.6755 8.38341 41.0625 8.77081C41.4499 9.15778 41.7572 9.61732 41.9669 10.1231C42.1766 10.629 42.2845 11.1712 42.2845 11.7187C42.2845 12.2663 42.1766 12.8085 41.9669 13.3143C41.7572 13.8201 41.4499 14.2797 41.0625 14.6666L40.9375 14.7916C40.4572 15.2826 40.135 15.9063 40.0125 16.5821C39.8899 17.2579 39.9727 17.9549 40.25 18.5833V18.75C40.5141 19.3662 40.9526 19.8917 41.5115 20.2618C42.0705 20.632 42.7254 20.8306 43.3958 20.8333H43.75C44.8551 20.8333 45.9149 21.2723 46.6963 22.0537C47.4777 22.8351 47.9167 23.8949 47.9167 25C47.9167 26.105 47.4777 27.1649 46.6963 27.9463C45.9149 28.7277 44.8551 29.1666 43.75 29.1666H43.5625C42.8921 29.1693 42.2371 29.368 41.6782 29.7381C41.1193 30.1083 40.6808 30.6338 40.4167 31.25V31.25Z" stroke="#5D53F3" stroke-width="5" stroke-linecap="round" stroke-linejoin="round"/>
</g>
<defs>
<clipPath id="clip0">
<rect width="50" height="50" fill="white"/>
</clipPath>
</defs>
</svg>
