<svg width="648" height="656" viewBox="0 0 648 656" fill="none" xmlns="http://www.w3.org/2000/svg">
<path d="M648 501.709H0V502.037H648V501.709Z" fill="#EBEBEB"/>
<path d="M583.07 522.819H540.147V523.147H583.07V522.819Z" fill="#EBEBEB"/>
<path d="M429.261 526.388H417.999V526.716H429.261V526.388Z" fill="#EBEBEB"/>
<path d="M538.851 510.643H513.981V510.972H538.851V510.643Z" fill="#EBEBEB"/>
<path d="M123.962 512.848H67.9882V513.176H123.962V512.848Z" fill="#EBEBEB"/>
<path d="M143.713 512.848H135.51V513.176H143.713V512.848Z" fill="#EBEBEB"/>
<path d="M291.794 518.384H170.385V518.712H291.794V518.384Z" fill="#EBEBEB"/>
<path d="M307.152 443.194H56.9074C54.947 443.19 53.068 442.399 51.683 440.995C50.298 439.59 49.5202 437.687 49.5202 435.702V79.5859C49.5372 77.6127 50.3226 75.726 51.7058 74.3356C53.0889 72.9452 54.9581 72.1634 56.9074 72.16H307.152C309.115 72.16 310.997 72.9493 312.385 74.3542C313.773 75.7592 314.552 77.6646 314.552 79.6515V435.702C314.552 437.689 313.773 439.594 312.385 440.999C310.997 442.404 309.115 443.194 307.152 443.194ZM56.9074 72.4224C55.0329 72.4259 53.2364 73.1821 51.9121 74.5252C50.5879 75.8682 49.8442 77.6883 49.8442 79.5859V435.702C49.8442 437.6 50.5879 439.42 51.9121 440.763C53.2364 442.106 55.0329 442.862 56.9074 442.866H307.152C309.028 442.862 310.826 442.106 312.152 440.764C313.478 439.421 314.225 437.601 314.228 435.702V79.5859C314.225 77.6871 313.478 75.867 312.152 74.5244C310.826 73.1817 309.028 72.4259 307.152 72.4224H56.9074Z" fill="#EBEBEB"/>
<path d="M587.49 443.194H337.232C335.271 443.19 333.39 442.4 332.003 440.996C330.616 439.591 329.835 437.688 329.832 435.702V79.5859C329.852 77.6115 330.641 75.7248 332.026 74.3348C333.411 72.9447 335.282 72.1633 337.232 72.16H587.49C589.437 72.1668 591.303 72.9502 592.683 74.3402C594.063 75.7302 594.847 77.615 594.864 79.5859V435.702C594.864 437.684 594.088 439.586 592.706 440.99C591.324 442.394 589.448 443.187 587.49 443.194ZM337.232 72.4224C335.356 72.4259 333.559 73.1817 332.232 74.5244C330.906 75.867 330.159 77.6871 330.156 79.5859V435.702C330.159 437.601 330.906 439.421 332.232 440.764C333.559 442.106 335.356 442.862 337.232 442.866H587.49C589.365 442.862 591.163 442.106 592.49 440.764C593.816 439.421 594.562 437.601 594.566 435.702V79.5859C594.562 77.6871 593.816 75.867 592.49 74.5244C591.163 73.1817 589.365 72.4259 587.49 72.4224H337.232Z" fill="#EBEBEB"/>
<path d="M458.693 128.76C458.695 127.912 458.531 127.073 458.209 126.29C457.888 125.508 457.417 124.797 456.823 124.201C456.228 123.604 455.523 123.132 454.747 122.814C453.971 122.495 453.141 122.335 452.304 122.344C451.686 122.344 451.07 122.432 450.477 122.606C450.57 121.955 450.618 121.297 450.619 120.638C450.619 117.046 449.213 113.6 446.709 111.055C444.204 108.51 440.806 107.073 437.257 107.059C436.427 107.06 435.599 107.135 434.782 107.282C433.459 105.082 431.465 103.376 429.1 102.423C426.736 101.471 424.13 101.322 421.675 102.001C419.219 102.679 417.049 104.147 415.491 106.184C413.932 108.221 413.07 110.715 413.035 113.291H412.841C410.037 113.389 407.381 114.586 405.432 116.629C403.483 118.671 402.394 121.4 402.394 124.24C402.394 127.08 403.483 129.809 405.432 131.851C407.381 133.894 410.037 135.09 412.841 135.188H452.524C454.177 135.141 455.746 134.442 456.898 133.242C458.05 132.041 458.694 130.433 458.693 128.76Z" fill="#F0F0F0"/>
<path d="M435.391 138.35V125.847H425.321V138.35H417.118L430.363 149.686L443.608 138.35H435.391Z" fill="#E0E0E0"/>
<path d="M260.081 147.679C260.081 144.066 258.664 140.6 256.142 138.044C253.619 135.488 250.198 134.051 246.629 134.047C245.312 134.049 244.003 134.243 242.741 134.624C242.95 133.239 243.054 131.84 243.052 130.439C243.052 122.784 240.048 115.442 234.701 110.029C229.354 104.616 222.102 101.575 214.54 101.575C212.779 101.575 211.021 101.742 209.291 102.074C206.483 97.3983 202.248 93.7746 197.226 91.7496C192.205 89.7246 186.669 89.4081 181.454 90.8479C176.24 92.2876 171.629 95.4055 168.318 99.731C165.008 104.056 163.177 109.355 163.102 114.826H162.687C159.626 114.753 156.581 115.299 153.732 116.434C150.883 117.569 148.287 119.269 146.097 121.435C143.906 123.6 142.165 126.188 140.977 129.044C139.788 131.901 139.176 134.969 139.176 138.068C139.176 141.168 139.788 144.236 140.977 147.093C142.165 149.949 143.906 152.536 146.097 154.702C148.287 156.867 150.883 158.567 153.732 159.702C156.581 160.837 159.626 161.384 162.687 161.31H246.992C250.498 161.215 253.83 159.736 256.275 157.189C258.72 154.643 260.086 151.23 260.081 147.679Z" fill="#F0F0F0"/>
<path d="M189.216 148.728V175.296H210.613V148.728H228.044L199.908 124.666L171.785 148.728H189.216Z" fill="#E0E0E0"/>
<path d="M270.825 214.027V178.301H378.886V213.672" stroke="#E6E6E6" stroke-miterlimit="10"/>
<path d="M326.449 144.635V213.935" stroke="#E6E6E6" stroke-miterlimit="10"/>
<path d="M344.84 131.029H308.085C307.233 131.029 306.543 131.728 306.543 132.591V154.724C306.543 155.586 307.233 156.285 308.085 156.285H344.84C345.691 156.285 346.382 155.586 346.382 154.724V132.591C346.382 131.728 345.691 131.029 344.84 131.029Z" fill="#F0F0F0"/>
<path d="M344.451 133.995H308.461C308.16 133.995 307.917 134.241 307.917 134.546V154.724C307.917 155.028 308.16 155.275 308.461 155.275H344.451C344.751 155.275 344.995 155.028 344.995 154.724V134.546C344.995 134.241 344.751 133.995 344.451 133.995Z" fill="#E0E0E0"/>
<path d="M289.202 210.786H252.448C251.596 210.786 250.906 211.485 250.906 212.347V234.481C250.906 235.343 251.596 236.042 252.448 236.042H289.202C290.054 236.042 290.745 235.343 290.745 234.481V212.347C290.745 211.485 290.054 210.786 289.202 210.786Z" fill="#F0F0F0"/>
<path d="M288.814 213.751H252.824C252.523 213.751 252.279 213.998 252.279 214.302V234.481C252.279 234.785 252.523 235.032 252.824 235.032H288.814C289.114 235.032 289.358 234.785 289.358 234.481V214.302C289.358 213.998 289.114 213.751 288.814 213.751Z" fill="#E0E0E0"/>
<path d="M344.84 210.786H308.085C307.233 210.786 306.543 211.485 306.543 212.347V234.481C306.543 235.343 307.233 236.042 308.085 236.042H344.84C345.691 236.042 346.382 235.343 346.382 234.481V212.347C346.382 211.485 345.691 210.786 344.84 210.786Z" fill="#F0F0F0"/>
<path d="M344.451 213.751H308.461C308.16 213.751 307.917 213.998 307.917 214.302V234.481C307.917 234.785 308.16 235.032 308.461 235.032H344.451C344.751 235.032 344.995 234.785 344.995 234.481V214.302C344.995 213.998 344.751 213.751 344.451 213.751Z" fill="#E0E0E0"/>
<path d="M397.354 210.786H360.599C359.747 210.786 359.057 211.485 359.057 212.347V234.481C359.057 235.343 359.747 236.042 360.599 236.042H397.354C398.205 236.042 398.896 235.343 398.896 234.481V212.347C398.896 211.485 398.205 210.786 397.354 210.786Z" fill="#F0F0F0"/>
<path d="M396.965 213.751H360.975C360.674 213.751 360.431 213.998 360.431 214.302V234.481C360.431 234.785 360.674 235.032 360.975 235.032H396.965C397.265 235.032 397.509 234.785 397.509 234.481V214.302C397.509 213.998 397.265 213.751 396.965 213.751Z" fill="#E0E0E0"/>
<path d="M325.706 167.478L315.754 177.553C315.344 177.968 315.344 178.641 315.754 179.056L325.706 189.131C326.116 189.546 326.78 189.546 327.19 189.131L337.143 179.056C337.553 178.641 337.553 177.968 337.143 177.553L327.19 167.478C326.78 167.063 326.116 167.063 325.706 167.478Z" fill="#E0E0E0"/>
<path opacity="0.8" d="M115.461 160.917H89.5277C88.905 160.917 88.4002 161.428 88.4002 162.058V176.871C88.4002 177.501 88.905 178.012 89.5277 178.012H115.461C116.083 178.012 116.588 177.501 116.588 176.871V162.058C116.588 161.428 116.083 160.917 115.461 160.917Z" fill="#E0E0E0"/>
<path d="M95.6707 197.692H75.1291C74.5064 197.692 74.0016 198.203 74.0016 198.834V209.605C74.0016 210.236 74.5064 210.747 75.1291 210.747H95.6707C96.2934 210.747 96.7982 210.236 96.7982 209.605V198.834C96.7982 198.203 96.2934 197.692 95.6707 197.692Z" fill="#E0E0E0"/>
<path d="M130.261 197.692H109.719C109.097 197.692 108.592 198.203 108.592 198.834V209.605C108.592 210.236 109.097 210.747 109.719 210.747H130.261C130.884 210.747 131.388 210.236 131.388 209.605V198.834C131.388 198.203 130.884 197.692 130.261 197.692Z" fill="#E0E0E0"/>
<path d="M108.994 225.323H99.2866C98.6638 225.323 98.159 225.834 98.159 226.464V235.333C98.159 235.964 98.6638 236.475 99.2866 236.475H108.994C109.616 236.475 110.121 235.964 110.121 235.333V226.464C110.121 225.834 109.616 225.323 108.994 225.323Z" fill="#E0E0E0"/>
<path d="M124.183 225.323H114.476C113.853 225.323 113.348 225.834 113.348 226.464V235.333C113.348 235.964 113.853 236.475 114.476 236.475H124.183C124.805 236.475 125.31 235.964 125.31 235.333V226.464C125.31 225.834 124.805 225.323 124.183 225.323Z" fill="#E0E0E0"/>
<path d="M139.385 225.323H129.678C129.055 225.323 128.55 225.834 128.55 226.464V235.333C128.55 235.964 129.055 236.475 129.678 236.475H139.385C140.008 236.475 140.512 235.964 140.512 235.333V226.464C140.512 225.834 140.008 225.323 139.385 225.323Z" fill="#E0E0E0"/>
<path d="M73.8331 225.323H64.1261C63.5034 225.323 62.9986 225.834 62.9986 226.464V235.333C62.9986 235.964 63.5034 236.475 64.1261 236.475H73.8331C74.4558 236.475 74.9606 235.964 74.9606 235.333V226.464C74.9606 225.834 74.4558 225.323 73.8331 225.323Z" fill="#E0E0E0"/>
<path d="M90.3182 225.323H80.6112C79.9885 225.323 79.4837 225.834 79.4837 226.464V235.333C79.4837 235.964 79.9885 236.475 80.6112 236.475H90.3182C90.941 236.475 91.4458 235.964 91.4458 235.333V226.464C91.4458 225.834 90.941 225.323 90.3182 225.323Z" fill="#E0E0E0"/>
<path d="M118.688 197.692H119.984V188.508H103.136V178.012H101.84V188.508H84.9917V197.692H86.2877V189.82H118.688V197.692Z" fill="#E0E0E0"/>
<path d="M84.9917 218.684H68.1437V225.244H69.4397V219.996H84.9917V225.244H86.2877V210.812H84.9917V218.684Z" fill="#E0E0E0"/>
<path d="M119.984 219.996V210.812H118.688V219.996H103.136V225.244H104.432V221.308H118.688V225.244H119.984V221.308H134.24V225.244H135.536V219.996H119.984Z" fill="#E0E0E0"/>
<path d="M493.776 165.023V174.496L498.571 174.955C499.215 178.06 500.428 181.015 502.148 183.667L499.064 187.432L505.647 194.097L509.367 190.975C511.983 192.722 514.904 193.95 517.972 194.596L518.4 199.424H527.705L528.159 194.57C531.228 193.924 534.148 192.695 536.764 190.948L540.484 194.071L547.068 187.406L543.996 183.68C545.716 181.028 546.93 178.073 547.573 174.968L552.368 174.509V165.089L547.573 164.63C546.932 161.528 545.718 158.577 543.996 155.931L547.081 152.166L540.497 145.501L536.777 148.61C534.158 146.869 531.239 145.64 528.172 144.989L527.718 140.135H518.4L517.946 144.989C514.879 145.64 511.96 146.869 509.341 148.61L505.621 145.501L499.038 152.166L502.122 155.931C500.4 158.577 499.186 161.528 498.545 164.63L493.776 165.023ZM523.079 156.981C525.573 156.981 528.012 157.73 530.086 159.133C532.16 160.536 533.776 162.531 534.73 164.864C535.684 167.198 535.933 169.765 535.445 172.242C534.958 174.719 533.755 176.993 531.991 178.778C530.226 180.563 527.978 181.778 525.531 182.269C523.084 182.76 520.548 182.505 518.244 181.537C515.94 180.569 513.971 178.93 512.587 176.829C511.203 174.728 510.466 172.259 510.468 169.733C510.472 166.352 511.8 163.111 514.162 160.72C516.524 158.329 519.726 156.984 523.066 156.981H523.079Z" fill="#F5F5F5"/>
<path d="M499.776 233.798C502.18 233.287 504.466 232.321 506.516 230.951L509.432 233.405L514.616 228.157L512.205 225.205C513.552 223.128 514.501 220.814 515.004 218.382L518.763 218.015V210.628L515.004 210.274C514.504 207.842 513.554 205.527 512.205 203.452L514.616 200.5L509.432 195.252L506.516 197.692C504.465 196.327 502.179 195.365 499.776 194.858L499.427 191.053H492.13L491.78 194.858C489.378 195.365 487.091 196.327 485.041 197.692L482.112 195.304L476.928 200.552L479.339 203.504C477.99 205.58 477.04 207.895 476.539 210.327L472.781 210.681V218.068L476.539 218.435C477.042 220.866 477.992 223.181 479.339 225.257L476.928 228.183L482.112 233.431L485.028 230.978C487.078 232.347 489.364 233.313 491.767 233.825L492.117 237.616H499.414L499.776 233.798ZM485.896 214.355C485.894 212.374 486.472 210.437 487.557 208.789C488.642 207.141 490.185 205.856 491.992 205.097C493.798 204.337 495.787 204.137 497.706 204.522C499.625 204.906 501.388 205.859 502.772 207.258C504.157 208.658 505.1 210.441 505.482 212.384C505.865 214.326 505.67 216.339 504.922 218.169C504.174 219.999 502.906 221.563 501.28 222.664C499.653 223.765 497.741 224.352 495.785 224.352C493.164 224.352 490.651 223.299 488.797 221.425C486.943 219.55 485.9 217.007 485.896 214.355Z" fill="#F5F5F5"/>
<path d="M483.499 193.822L485.948 195.868L490.29 191.486L488.255 189.007C489.391 187.263 490.192 185.318 490.614 183.273L493.763 182.972V176.779L490.614 176.477C490.192 174.432 489.391 172.487 488.255 170.744L490.29 168.264L486 163.882L483.551 165.929C481.832 164.781 479.915 163.971 477.9 163.541L477.602 160.353H471.472L471.174 163.541C469.154 163.968 467.232 164.778 465.51 165.929L463.061 163.882L458.732 168.264L460.754 170.744C459.622 172.488 458.826 174.433 458.408 176.477L455.246 176.779V182.972L458.408 183.273C458.826 185.317 459.622 187.262 460.754 189.007L458.68 191.552L463.009 195.934L465.458 193.887C467.179 195.039 469.101 195.845 471.122 196.262L471.42 199.463H477.55L477.848 196.262C479.869 195.822 481.787 194.994 483.499 193.822ZM466.184 179.875C466.184 178.214 466.671 176.591 467.582 175.21C468.493 173.829 469.789 172.753 471.304 172.118C472.82 171.482 474.488 171.316 476.097 171.64C477.706 171.964 479.184 172.763 480.344 173.938C481.504 175.112 482.294 176.608 482.614 178.237C482.934 179.866 482.769 181.554 482.142 183.089C481.514 184.623 480.451 185.934 479.087 186.857C477.723 187.78 476.119 188.272 474.479 188.272C472.279 188.272 470.169 187.387 468.614 185.813C467.058 184.238 466.184 182.102 466.184 179.875Z" fill="#F5F5F5"/>
<path d="M569.449 425.127H482.423V482.422H569.449V425.127Z" fill="#F5F5F5"/>
<path d="M566.248 435.873H485.598V479.562H566.248V435.873Z" fill="#E0E0E0"/>
<path d="M551.837 442.406H492.169V444.283H551.837V442.406Z" fill="#F5F5F5"/>
<path d="M520.798 448.153H492.169V450.029H520.798V448.153Z" fill="#F5F5F5"/>
<path d="M528.224 453.913H492.169V455.789H528.224V453.913Z" fill="#F5F5F5"/>
<path d="M504.87 459.672H492.169V461.548H504.87V459.672Z" fill="#F5F5F5"/>
<path d="M500.399 465.432H492.169V467.308H500.399V465.432Z" fill="#F5F5F5"/>
<path d="M123.883 424.803L61.9608 425.087L62.1341 463.751L124.056 463.467L123.883 424.803Z" fill="#EBEBEB"/>
<path d="M85.7174 454.031C85.4429 454.032 85.1752 453.944 84.9528 453.781L73.6646 445.424C73.5013 445.303 73.3682 445.145 73.2759 444.963C73.1836 444.781 73.1348 444.579 73.1333 444.374C73.1313 444.169 73.1771 443.965 73.2672 443.78C73.3573 443.596 73.489 443.435 73.6517 443.312L84.875 434.849C85.1517 434.642 85.4983 434.555 85.8386 434.607C86.1789 434.658 86.4849 434.845 86.6894 435.125C86.8939 435.405 86.9802 435.756 86.9291 436.1C86.8781 436.445 86.694 436.755 86.4173 436.962L76.6066 444.361L86.4821 451.656C86.7042 451.819 86.8696 452.049 86.9545 452.313C87.0393 452.577 87.0393 452.861 86.9543 453.125C86.8693 453.389 86.7037 453.619 86.4815 453.782C86.2592 453.945 85.9917 454.032 85.7174 454.031Z" fill="#FAFAFA"/>
<path d="M100.388 453.952C100.185 453.954 99.9838 453.908 99.8014 453.816C99.619 453.725 99.4604 453.592 99.3384 453.427C99.237 453.289 99.1635 453.131 99.1223 452.964C99.0811 452.796 99.0729 452.622 99.0982 452.452C99.1234 452.281 99.1817 452.117 99.2696 451.969C99.3576 451.822 99.4734 451.693 99.6106 451.59L109.421 444.191L99.5458 436.896C99.2691 436.689 99.0849 436.379 99.0339 436.035C98.9829 435.69 99.0691 435.339 99.2736 435.059C99.4781 434.779 99.7842 434.593 100.124 434.541C100.465 434.489 100.811 434.577 101.088 434.784L112.376 443.128C112.541 443.25 112.675 443.41 112.768 443.595C112.86 443.78 112.908 443.984 112.908 444.191C112.908 444.394 112.861 444.595 112.771 444.777C112.681 444.96 112.55 445.118 112.389 445.24L101.166 453.703C100.94 453.868 100.667 453.956 100.388 453.952Z" fill="#FAFAFA"/>
<path d="M90.0979 454.018C89.952 454.016 89.8074 453.989 89.6702 453.939C89.3479 453.823 89.084 453.583 88.9359 453.271C88.7878 452.958 88.7676 452.6 88.8797 452.273L94.6987 435.427C94.7549 435.264 94.8422 435.114 94.9556 434.985C95.069 434.856 95.2064 434.752 95.3598 434.677C95.5133 434.602 95.6798 434.558 95.8499 434.548C96.02 434.539 96.1903 434.563 96.3511 434.62C96.5119 434.677 96.6601 434.765 96.7872 434.88C96.9143 434.995 97.0178 435.134 97.0919 435.289C97.1659 435.444 97.2089 435.613 97.2186 435.785C97.2283 435.957 97.2043 436.13 97.1482 436.292L91.3291 453.139C91.24 453.397 91.0734 453.62 90.8526 453.778C90.6319 453.935 90.368 454.019 90.0979 454.018Z" fill="#FAFAFA"/>
<path d="M324 560.959C462.779 560.959 575.281 554.309 575.281 546.107C575.281 537.904 462.779 531.255 324 531.255C185.221 531.255 72.7186 537.904 72.7186 546.107C72.7186 554.309 185.221 560.959 324 560.959Z" fill="#F5F5F5"/>
<path d="M433.356 546.107H442.882L455.842 473.632H446.316L433.356 546.107Z" fill="#263238"/>
<path opacity="0.2" d="M433.356 546.107H442.882L455.842 473.632H446.316L433.356 546.107Z" fill="white"/>
<path opacity="0.2" d="M433.356 546.107H440.29L453.25 473.632H446.316L433.356 546.107Z" fill="white"/>
<path d="M406.542 495.188H444.632C444.908 495.19 445.182 495.136 445.437 495.03C445.693 494.924 445.925 494.767 446.12 494.57C446.315 494.372 446.47 494.137 446.575 493.878C446.68 493.62 446.733 493.342 446.731 493.063C446.733 492.783 446.68 492.506 446.575 492.247C446.47 491.989 446.315 491.754 446.12 491.556C445.925 491.358 445.693 491.202 445.437 491.096C445.182 490.989 444.908 490.936 444.632 490.937H406.542C406.266 490.936 405.992 490.989 405.737 491.096C405.481 491.202 405.249 491.358 405.054 491.556C404.859 491.754 404.704 491.989 404.599 492.247C404.494 492.506 404.441 492.783 404.443 493.063C404.441 493.342 404.494 493.62 404.599 493.878C404.704 494.137 404.859 494.372 405.054 494.57C405.249 494.767 405.481 494.924 405.737 495.03C405.992 495.136 406.266 495.19 406.542 495.188Z" fill="#263238"/>
<path d="M402.304 519.46H440.407C440.965 519.457 441.499 519.23 441.892 518.829C442.285 518.428 442.506 517.887 442.506 517.322C442.503 516.759 442.281 516.22 441.888 515.822C441.495 515.425 440.962 515.2 440.407 515.196H402.304C401.749 515.2 401.216 515.425 400.823 515.822C400.43 516.22 400.208 516.759 400.205 517.322C400.205 517.887 400.426 518.428 400.819 518.829C401.212 519.23 401.746 519.457 402.304 519.46Z" fill="#263238"/>
<path d="M394.476 546.107H404.002L416.962 473.632H407.436L394.476 546.107Z" fill="#263238"/>
<path opacity="0.2" d="M394.476 546.107H404.002L416.962 473.632H407.436L394.476 546.107Z" fill="white"/>
<path opacity="0.2" d="M394.476 546.107H401.41L414.37 473.632H407.436L394.476 546.107Z" fill="white"/>
<path d="M483.058 546.107H473.533L460.573 473.632H470.098L483.058 546.107Z" fill="#263238"/>
<path opacity="0.4" d="M483.058 546.107H473.533L460.573 473.632H470.098L483.058 546.107Z" fill="white"/>
<path opacity="0.2" d="M480.466 546.107H473.533L460.573 473.632H467.506L480.466 546.107Z" fill="white"/>
<path d="M466.327 495.188H428.224C427.668 495.188 427.133 494.964 426.74 494.566C426.346 494.167 426.125 493.626 426.125 493.063C426.125 492.499 426.346 491.958 426.74 491.56C427.133 491.161 427.668 490.937 428.224 490.937H466.327C466.884 490.937 467.418 491.161 467.811 491.56C468.205 491.958 468.426 492.499 468.426 493.063C468.426 493.626 468.205 494.167 467.811 494.566C467.418 494.964 466.884 495.188 466.327 495.188Z" fill="#263238"/>
<path d="M470.552 519.46H432.462C432.185 519.46 431.911 519.405 431.656 519.297C431.4 519.189 431.168 519.032 430.973 518.833C430.778 518.634 430.624 518.398 430.519 518.139C430.414 517.88 430.361 517.602 430.363 517.322C430.363 516.758 430.584 516.217 430.978 515.819C431.371 515.42 431.905 515.196 432.462 515.196H470.552C471.109 515.196 471.643 515.42 472.036 515.819C472.43 516.217 472.651 516.758 472.651 517.322C472.653 517.602 472.6 517.88 472.495 518.139C472.39 518.398 472.236 518.634 472.041 518.833C471.846 519.032 471.614 519.189 471.358 519.297C471.103 519.405 470.828 519.46 470.552 519.46Z" fill="#263238"/>
<path opacity="0.2" d="M466.327 495.188H428.224C427.668 495.188 427.133 494.964 426.74 494.566C426.346 494.167 426.125 493.626 426.125 493.063C426.125 492.499 426.346 491.958 426.74 491.56C427.133 491.161 427.668 490.937 428.224 490.937H466.327C466.884 490.937 467.418 491.161 467.811 491.56C468.205 491.958 468.426 492.499 468.426 493.063C468.426 493.626 468.205 494.167 467.811 494.566C467.418 494.964 466.884 495.188 466.327 495.188Z" fill="white"/>
<path opacity="0.2" d="M470.552 519.46H432.462C432.185 519.46 431.911 519.405 431.656 519.297C431.4 519.189 431.168 519.032 430.973 518.833C430.778 518.634 430.624 518.398 430.519 518.139C430.414 517.88 430.361 517.602 430.363 517.322C430.363 516.758 430.584 516.217 430.978 515.819C431.371 515.42 431.905 515.196 432.462 515.196H470.552C471.109 515.196 471.643 515.42 472.036 515.819C472.43 516.217 472.651 516.758 472.651 517.322C472.653 517.602 472.6 517.88 472.495 518.139C472.39 518.398 472.236 518.634 472.041 518.833C471.846 519.032 471.614 519.189 471.358 519.297C471.103 519.405 470.828 519.46 470.552 519.46Z" fill="white"/>
<path d="M444.178 546.107H434.652L421.692 473.632H431.218L444.178 546.107Z" fill="#263238"/>
<path opacity="0.4" d="M444.178 546.107H434.652L421.692 473.632H431.218L444.178 546.107Z" fill="white"/>
<path opacity="0.2" d="M441.586 546.107H434.652L421.692 473.632H428.626L441.586 546.107Z" fill="white"/>
<path d="M473.805 470.168H405C404.148 470.168 403.458 470.867 403.458 471.73V475.521C403.458 476.384 404.148 477.083 405 477.083H473.805C474.656 477.083 475.347 476.384 475.347 475.521V471.73C475.347 470.867 474.656 470.168 473.805 470.168Z" fill="#263238"/>
<path opacity="0.2" d="M431.153 470.168H405C404.148 470.168 403.458 470.867 403.458 471.73V475.521C403.458 476.384 404.148 477.083 405 477.083H431.153C432.005 477.083 432.696 476.384 432.696 475.521V471.73C432.696 470.867 432.005 470.168 431.153 470.168Z" fill="white"/>
<path d="M251.878 487.867H164.851V545.162H251.878V487.867Z" fill="#5D53F3"/>
<path opacity="0.6" d="M251.878 487.867H164.851V545.162H251.878V487.867Z" fill="white"/>
<path d="M248.702 498.613H168.039V542.302H248.702V498.613Z" fill="#5D53F3"/>
<path d="M234.278 505.133H174.61V507.009H234.278V505.133Z" fill="white"/>
<path d="M203.239 510.893H174.61V512.769H203.239V510.893Z" fill="white"/>
<path d="M210.665 516.652H174.61V518.529H210.665V516.652Z" fill="white"/>
<path d="M187.311 522.399H174.61V524.275H187.311V522.399Z" fill="white"/>
<path d="M182.84 528.159H174.61V530.035H182.84V528.159Z" fill="white"/>
<path d="M359.42 546.107H288.58L300.568 450.764H347.432L359.42 546.107Z" fill="#5D53F3"/>
<path opacity="0.6" d="M359.42 546.107H288.58L296.784 480.874L300.581 450.764H347.419L353.017 495.188L359.42 546.107Z" fill="white"/>
<path opacity="0.1" d="M353.017 495.188L296.784 480.874L300.581 450.764H347.419L353.017 495.188Z" fill="black"/>
<path d="M491.016 215.667H156.984C155.862 215.667 154.75 215.891 153.713 216.326C152.676 216.761 151.734 217.399 150.941 218.204C150.148 219.008 149.519 219.963 149.09 221.013C148.662 222.064 148.442 223.189 148.444 224.326V453.243C148.444 455.537 149.344 457.736 150.945 459.357C152.547 460.979 154.719 461.89 156.984 461.89H491.016C493.281 461.89 495.453 460.979 497.055 459.357C498.656 457.736 499.556 455.537 499.556 453.243V224.352C499.561 223.213 499.344 222.085 498.917 221.031C498.49 219.978 497.862 219.02 497.068 218.213C496.275 217.406 495.332 216.765 494.293 216.328C493.254 215.891 492.14 215.667 491.016 215.667Z" fill="#5D53F3"/>
<path opacity="0.7" d="M491.016 215.667H156.984C155.862 215.667 154.75 215.891 153.713 216.326C152.676 216.761 151.734 217.399 150.941 218.204C150.148 219.008 149.519 219.963 149.09 221.013C148.662 222.064 148.442 223.189 148.444 224.326V453.243C148.444 455.537 149.344 457.736 150.945 459.357C152.547 460.979 154.719 461.89 156.984 461.89H491.016C493.281 461.89 495.453 460.979 497.055 459.357C498.656 457.736 499.556 455.537 499.556 453.243V224.352C499.561 223.213 499.344 222.085 498.917 221.031C498.49 219.978 497.862 219.02 497.068 218.213C496.275 217.406 495.332 216.765 494.293 216.328C493.254 215.891 492.14 215.667 491.016 215.667Z" fill="white"/>
<path d="M488.32 224.142H159.693V444.886H488.32V224.142Z" fill="#5D53F3"/>
<path d="M383.486 538.943H264.501C263.756 538.943 263.153 539.554 263.153 540.308V544.624C263.153 545.378 263.756 545.989 264.501 545.989H383.486C384.231 545.989 384.834 545.378 384.834 544.624V540.308C384.834 539.554 384.231 538.943 383.486 538.943Z" fill="#5D53F3"/>
<path opacity="0.7" d="M383.486 538.943H264.501C263.756 538.943 263.153 539.554 263.153 540.308V544.624C263.153 545.378 263.756 545.989 264.501 545.989H383.486C384.231 545.989 384.834 545.378 384.834 544.624V540.308C384.834 539.554 384.231 538.943 383.486 538.943Z" fill="white"/>
<path opacity="0.2" d="M488.32 224.352H159.693V257.257H488.32V224.352Z" fill="black"/>
<path opacity="0.4" d="M300.516 257.651H159.693V444.886H300.516V257.651Z" fill="white"/>
<path d="M437.737 305.407V308.687H434.497" stroke="white" stroke-miterlimit="10"/>
<path d="M427.654 308.687H321.512" stroke="white" stroke-miterlimit="10" stroke-dasharray="5.28 5.28"/>
<path d="M318.09 308.687H314.85V305.407" stroke="white" stroke-miterlimit="10"/>
<path d="M314.85 299.464V243.009" stroke="white" stroke-miterlimit="10" stroke-dasharray="4.53 4.53"/>
<path d="M314.85 240.044V236.764H318.09" stroke="white" stroke-miterlimit="10"/>
<path d="M324.933 236.764H431.075" stroke="white" stroke-miterlimit="10" stroke-dasharray="5.28 5.28"/>
<path d="M434.497 236.764H437.737V240.044" stroke="white" stroke-miterlimit="10"/>
<path d="M437.737 245.987V302.442" stroke="white" stroke-miterlimit="10" stroke-dasharray="4.53 4.53"/>
<path d="M439.798 234.677H435.689V238.836H439.798V234.677Z" fill="#5D53F3" stroke="white" stroke-miterlimit="10"/>
<path d="M439.798 306.614H435.689V310.773H439.798V306.614Z" fill="#5D53F3" stroke="white" stroke-miterlimit="10"/>
<path d="M316.898 234.677H312.79V238.836H316.898V234.677Z" fill="#5D53F3" stroke="white" stroke-miterlimit="10"/>
<path d="M316.898 306.614H312.79V310.773H316.898V306.614Z" fill="#5D53F3" stroke="white" stroke-miterlimit="10"/>
<path d="M378.354 234.677H374.246V238.836H378.354V234.677Z" fill="#5D53F3" stroke="white" stroke-miterlimit="10"/>
<path d="M378.354 306.614H374.246V310.773H378.354V306.614Z" fill="#5D53F3" stroke="white" stroke-miterlimit="10"/>
<path d="M439.798 270.639H435.689V274.798H439.798V270.639Z" fill="#5D53F3" stroke="white" stroke-miterlimit="10"/>
<path d="M316.898 270.639H312.79V274.798H316.898V270.639Z" fill="#5D53F3" stroke="white" stroke-miterlimit="10"/>
<path opacity="0.7" d="M426.578 260.917H396.498C395.145 260.917 394.049 262.028 394.049 263.397V271.545C394.049 272.914 395.145 274.024 396.498 274.024H426.578C427.931 274.024 429.028 272.914 429.028 271.545V263.397C429.028 262.028 427.931 260.917 426.578 260.917Z" fill="white"/>
<path opacity="0.7" d="M374.738 260.917H344.658C343.305 260.917 342.209 262.028 342.209 263.397V271.545C342.209 272.914 343.305 274.024 344.658 274.024H374.738C376.091 274.024 377.188 272.914 377.188 271.545V263.397C377.188 262.028 376.091 260.917 374.738 260.917Z" fill="white"/>
<path opacity="0.7" d="M308.007 420.444H277.927C276.574 420.444 275.478 421.554 275.478 422.923V431.071C275.478 432.44 276.574 433.55 277.927 433.55H308.007C309.36 433.55 310.457 432.44 310.457 431.071V422.923C310.457 421.554 309.36 420.444 308.007 420.444Z" fill="white"/>
<path d="M466.625 236.055H477.563" stroke="white" stroke-width="1.5" stroke-linecap="round" stroke-linejoin="round"/>
<path d="M466.625 241.303H477.563" stroke="white" stroke-width="1.5" stroke-linecap="round" stroke-linejoin="round"/>
<path d="M466.625 246.551H477.563" stroke="white" stroke-width="1.5" stroke-linecap="round" stroke-linejoin="round"/>
<path opacity="0.5" d="M292.196 286.672H181.971V398.258H292.196V286.672Z" fill="white"/>
<path d="M228.109 295.79V392.052" stroke="#5D53F3" stroke-miterlimit="10"/>
<path d="M275.646 392.052C263.035 392.052 250.941 386.98 242.023 377.953C233.106 368.925 228.096 356.681 228.096 343.915V343.915C228.096 331.151 233.104 318.911 242.019 309.886C250.934 300.861 263.026 295.79 275.633 295.79V295.79" stroke="#5D53F3" stroke-miterlimit="10"/>
<path d="M277.707 293.717H273.599V297.876H277.707V293.717Z" fill="white" stroke="#5D53F3" stroke-miterlimit="10"/>
<path d="M277.707 389.966H273.599V394.125H277.707V389.966Z" fill="white" stroke="#5D53F3" stroke-miterlimit="10"/>
<path d="M230.17 341.842H226.061V346.001H230.17V341.842Z" fill="white" stroke="#5D53F3" stroke-miterlimit="10"/>
<path d="M229.172 295.79C229.172 296.003 229.109 296.211 228.993 296.388C228.876 296.565 228.71 296.703 228.516 296.784C228.321 296.866 228.108 296.887 227.902 296.846C227.696 296.804 227.506 296.702 227.358 296.551C227.209 296.401 227.108 296.209 227.067 296C227.026 295.792 227.047 295.575 227.127 295.379C227.208 295.182 227.344 295.014 227.519 294.896C227.693 294.778 227.899 294.715 228.109 294.715C228.39 294.718 228.658 294.832 228.857 295.033C229.055 295.234 229.168 295.506 229.172 295.79Z" fill="white" stroke="#5D53F3" stroke-miterlimit="10"/>
<path d="M229.172 392.052C229.172 392.264 229.11 392.472 228.993 392.648C228.877 392.825 228.712 392.963 228.519 393.044C228.325 393.126 228.112 393.148 227.906 393.108C227.701 393.067 227.511 392.966 227.362 392.817C227.213 392.668 227.111 392.477 227.068 392.27C227.026 392.062 227.045 391.846 227.123 391.649C227.202 391.452 227.336 391.283 227.509 391.164C227.682 391.044 227.886 390.979 228.096 390.976C228.237 390.974 228.376 391.001 228.507 391.054C228.637 391.107 228.756 391.186 228.856 391.286C228.956 391.387 229.035 391.506 229.09 391.637C229.144 391.768 229.172 391.909 229.172 392.052Z" fill="white" stroke="#5D53F3" stroke-miterlimit="10"/>
<path opacity="0.7" d="M410.741 422.031H377.369C374.812 422.031 372.359 421.003 370.551 419.172C368.743 417.341 367.727 414.859 367.727 412.27C367.727 409.681 368.743 407.198 370.551 405.367C372.359 403.537 374.812 402.508 377.369 402.508H410.741C413.299 402.508 415.751 403.537 417.559 405.367C419.368 407.198 420.384 409.681 420.384 412.27C420.384 414.859 419.368 417.341 417.559 419.172C415.751 421.003 413.299 422.031 410.741 422.031Z" fill="white"/>
<path opacity="0.7" d="M440.057 338.785H336.96C336.4 338.785 335.862 338.559 335.466 338.158C335.07 337.757 334.848 337.213 334.848 336.646C334.858 336.087 335.085 335.554 335.481 335.164C335.876 334.773 336.408 334.556 336.96 334.56H440.044C440.321 334.558 440.595 334.612 440.851 334.718C441.108 334.824 441.34 334.98 441.537 335.178C441.733 335.375 441.889 335.61 441.995 335.869C442.102 336.128 442.156 336.405 442.156 336.685C442.146 337.244 441.921 337.775 441.529 338.168C441.136 338.56 440.608 338.781 440.057 338.785Z" fill="white"/>
<path opacity="0.7" d="M440.057 354.358H336.96C336.683 354.36 336.409 354.306 336.153 354.2C335.896 354.094 335.663 353.938 335.467 353.74C335.271 353.543 335.115 353.308 335.009 353.049C334.902 352.79 334.847 352.513 334.848 352.233C334.848 351.665 335.07 351.122 335.466 350.72C335.862 350.319 336.4 350.094 336.96 350.094H440.044C440.604 350.094 441.141 350.319 441.538 350.72C441.934 351.122 442.156 351.665 442.156 352.233C442.156 352.796 441.935 353.337 441.541 353.736C441.148 354.134 440.614 354.358 440.057 354.358Z" fill="white"/>
<path opacity="0.7" d="M440.057 369.984H375.84C375.282 369.984 374.747 369.761 374.351 369.362C373.955 368.964 373.731 368.423 373.728 367.859C373.728 367.291 373.95 366.747 374.346 366.346C374.742 365.945 375.28 365.72 375.84 365.72H440.044C440.604 365.72 441.141 365.945 441.538 366.346C441.934 366.747 442.156 367.291 442.156 367.859C442.153 368.421 441.931 368.96 441.538 369.358C441.145 369.756 440.613 369.981 440.057 369.984Z" fill="white"/>
<path opacity="0.4" d="M177.358 233.47H170.074V240.844H177.358V233.47Z" fill="black"/>
<path opacity="0.4" d="M189.644 233.47H186.093C185.062 233.47 184.226 234.316 184.226 235.36V238.955C184.226 239.998 185.062 240.844 186.093 240.844H189.644C190.674 240.844 191.51 239.998 191.51 238.955V235.36C191.51 234.316 190.674 233.47 189.644 233.47Z" fill="black"/>
<path opacity="0.4" d="M202.344 233.47H201.722C199.883 233.47 198.392 234.98 198.392 236.842V237.472C198.392 239.334 199.883 240.844 201.722 240.844H202.344C204.184 240.844 205.675 239.334 205.675 237.472V236.842C205.675 234.98 204.184 233.47 202.344 233.47Z" fill="black"/>
<path opacity="0.9" d="M192.391 415.248V412.375L190.94 412.244C190.732 411.311 190.364 410.422 189.851 409.62L190.784 408.478L188.775 406.445L187.648 407.389C186.855 406.87 185.977 406.497 185.056 406.287L184.926 404.818H182.088L181.945 406.287C181.024 406.498 180.147 406.871 179.353 407.389L178.226 406.445L176.217 408.478L177.15 409.62C176.627 410.417 176.258 411.307 176.062 412.244L174.597 412.375V415.248L176.062 415.392C176.259 416.328 176.628 417.219 177.15 418.016L176.217 419.171L178.226 421.191L179.353 420.247C180.141 420.776 181.021 421.149 181.945 421.349L182.088 422.831H184.926L185.056 421.349C185.981 421.15 186.86 420.776 187.648 420.247L188.775 421.191L190.784 419.171L189.851 418.016C190.368 417.216 190.737 416.327 190.94 415.392L192.391 415.248ZM183.462 417.701C182.693 417.701 181.941 417.471 181.302 417.038C180.662 416.606 180.164 415.991 179.87 415.272C179.575 414.552 179.498 413.761 179.648 412.998C179.798 412.234 180.169 411.533 180.713 410.982C181.256 410.432 181.949 410.057 182.703 409.905C183.457 409.753 184.239 409.831 184.95 410.129C185.66 410.427 186.267 410.931 186.695 411.579C187.122 412.226 187.35 412.987 187.35 413.765C187.35 414.809 186.94 415.81 186.211 416.549C185.482 417.287 184.493 417.701 183.462 417.701Z" fill="white"/>
<path opacity="0.6" d="M203.9 423.356V421.152L202.759 421.034C202.604 420.295 202.314 419.592 201.904 418.961L202.63 418.056L201.061 416.468L200.18 417.216C199.552 416.8 198.854 416.507 198.12 416.35L198.016 415.182H195.787L195.683 416.35C194.949 416.507 194.25 416.8 193.622 417.216L192.741 416.468L191.16 418.056L191.899 418.961C191.488 419.592 191.198 420.295 191.043 421.034L189.903 421.152V423.395L191.043 423.514C191.198 424.253 191.488 424.956 191.899 425.587L191.16 426.492L192.741 428.079L193.622 427.331C194.25 427.747 194.949 428.041 195.683 428.197L195.787 429.352H198.016L198.12 428.197C198.854 428.041 199.552 427.747 200.18 427.331L201.061 428.079L202.63 426.492L201.904 425.587C202.314 424.956 202.604 424.253 202.759 423.514L203.9 423.356ZM196.901 425.285C196.304 425.287 195.718 425.11 195.22 424.776C194.722 424.442 194.333 423.965 194.102 423.407C193.872 422.848 193.81 422.233 193.925 421.64C194.04 421.046 194.327 420.5 194.749 420.071C195.17 419.642 195.708 419.35 196.294 419.231C196.881 419.112 197.488 419.171 198.041 419.402C198.593 419.633 199.066 420.025 199.398 420.528C199.731 421.031 199.908 421.623 199.908 422.228C199.91 422.629 199.833 423.026 199.683 423.397C199.533 423.768 199.311 424.105 199.032 424.389C198.753 424.673 198.421 424.898 198.055 425.052C197.689 425.206 197.297 425.285 196.901 425.285Z" fill="white"/>
<path opacity="0.4" d="M192.391 429.746V427.856L191.432 427.764C191.304 427.143 191.062 426.551 190.719 426.02L191.341 425.272L190.045 423.96L189.294 424.576C188.768 424.23 188.184 423.985 187.57 423.855L187.479 422.884H185.587L185.496 423.855C184.883 423.985 184.298 424.23 183.773 424.576L183.021 423.96L181.725 425.272L182.347 426.02C182.005 426.551 181.763 427.143 181.634 427.764L180.662 427.856V429.746L181.634 429.837C181.761 430.464 182.002 431.06 182.347 431.596L181.725 432.343L183.021 433.655L183.773 433.026C184.295 433.382 184.88 433.631 185.496 433.76L185.587 434.731H187.453L187.544 433.76C188.16 433.631 188.746 433.382 189.268 433.026L190.02 433.655L191.316 432.343L190.693 431.596C191.038 431.06 191.28 430.464 191.406 429.837L192.391 429.746ZM186.52 431.359C186.023 431.346 185.541 431.186 185.134 430.897C184.727 430.608 184.414 430.204 184.232 429.735C184.051 429.267 184.01 428.755 184.115 428.263C184.219 427.771 184.465 427.321 184.821 426.97C185.177 426.619 185.627 426.381 186.115 426.288C186.604 426.194 187.109 426.249 187.567 426.444C188.025 426.64 188.416 426.967 188.69 427.387C188.965 427.806 189.112 428.298 189.112 428.801C189.112 429.143 189.045 429.481 188.914 429.795C188.783 430.11 188.591 430.395 188.349 430.634C188.108 430.872 187.821 431.059 187.507 431.184C187.193 431.308 186.858 431.368 186.52 431.359Z" fill="white"/>
<path d="M436.985 236.016L442.48 250.894L451.669 241.579L436.985 236.016Z" fill="#5D53F3"/>
<path d="M445.835 242.895L443.783 244.973L448.337 249.584L450.39 247.506L445.835 242.895Z" fill="#5D53F3"/>
<path opacity="0.4" d="M451.669 241.579L436.985 236.016L442.48 250.894L446.057 247.273L448.325 249.582L450.373 247.509L448.105 245.2L451.669 241.579Z" fill="white"/>
<path d="M211.844 289.191L225.672 294.439L218.428 287.105C218.16 287.261 217.848 287.324 217.542 287.283C217.235 287.243 216.95 287.102 216.73 286.882C216.462 286.611 216.311 286.242 216.311 285.859C216.311 285.475 216.462 285.107 216.73 284.835C216.998 284.564 217.362 284.411 217.741 284.411C218.12 284.411 218.484 284.564 218.752 284.835C218.969 285.058 219.109 285.346 219.148 285.657C219.188 285.967 219.126 286.283 218.972 286.554L226.217 293.888L221.033 279.889L216.445 280.912L216.276 279.246L215.408 278.367L210.328 283.51L211.196 284.389L212.855 284.56L211.844 289.191Z" fill="#263238"/>
<path opacity="0.2" d="M211.844 289.191L225.672 294.439L218.428 287.105C218.16 287.261 217.848 287.324 217.542 287.283C217.235 287.243 216.95 287.102 216.73 286.882C216.462 286.611 216.311 286.242 216.311 285.859C216.311 285.475 216.462 285.107 216.73 284.835C216.998 284.564 217.362 284.411 217.741 284.411C218.12 284.411 218.484 284.564 218.752 284.835C218.969 285.058 219.109 285.346 219.148 285.657C219.188 285.967 219.126 286.283 218.972 286.554L226.217 293.888L221.033 279.889L216.445 280.912L216.276 279.246L215.408 278.367L210.328 283.51L211.196 284.389L212.855 284.56L211.844 289.191Z" fill="white"/>
<g opacity="0.1">
<path opacity="0.1" d="M207.749 224.142L159.045 408.373V224.142H207.749Z" fill="white"/>
<path opacity="0.1" d="M262.712 224.142L204.353 444.886H164.151L222.497 224.142H262.712Z" fill="white"/>
<path opacity="0.1" d="M321.162 224.142L262.803 444.886H244.62L302.979 224.142H321.162Z" fill="white"/>
<path opacity="0.1" d="M374.985 224.142L316.626 444.886H310.12L368.479 224.142H374.985Z" fill="white"/>
</g>
<path d="M572.702 272.896C577.303 278.262 600.709 323.907 596.186 334.56C591.663 345.213 554.157 332.933 554.157 332.933L556.399 317.884C556.399 317.884 570.966 318.409 572.366 317.005C573.765 315.602 552.653 294.268 552.653 294.268L572.702 272.896Z" fill="#263238"/>
<g opacity="0.2">
<path opacity="0.2" d="M596.16 334.56C595.604 335.793 594.635 336.788 593.425 337.368L592.674 337.709H592.57C592.338 337.808 592.1 337.891 591.857 337.958C590.804 338.3 589.718 338.529 588.617 338.64L587.671 338.732C587.205 338.732 586.738 338.798 586.258 338.811H584.962C572.391 338.811 554.105 332.841 554.105 332.841L556.347 317.793C556.347 317.793 570.914 318.317 572.314 316.914C572.651 316.572 571.653 315.051 569.955 312.978C565.834 307.848 557.578 299.307 554.17 295.817L552.627 294.242L572.702 272.896C577.303 278.21 600.709 323.854 596.16 334.56Z" fill="white"/>
</g>
<path opacity="0.2" d="M593.451 337.328L592.7 337.669H592.596C592.364 337.768 592.126 337.851 591.883 337.919C590.83 338.261 589.744 338.49 588.643 338.601L587.697 338.693C587.231 338.693 586.764 338.758 586.284 338.772H584.988C572.417 338.772 554.131 332.802 554.131 332.802L556.373 317.753C556.373 317.753 572.78 319.157 574.18 317.753C574.439 317.202 572.625 315.339 569.942 312.964C565.821 307.835 557.565 299.293 554.157 295.804L563.643 285.544L570.862 284.756C570.862 284.756 586.842 310.944 593.451 337.328Z" fill="black"/>
<path d="M525.411 271.348C522.819 273.25 521.523 275.953 522.56 277.383L591.041 372.962C592.065 374.392 595.007 373.999 597.599 372.096C600.191 370.194 601.487 367.478 600.45 366.061L531.969 270.469C530.945 269.052 528.016 269.432 525.411 271.348Z" fill="#263238"/>
<path opacity="0.7" d="M531.969 270.469L600.45 366.048C601.474 367.465 600.191 370.168 597.599 372.083C595.007 373.999 592.065 374.366 591.054 372.949L522.573 277.357C522.312 276.859 522.196 276.295 522.239 275.733C522.283 275.171 522.484 274.632 522.819 274.182C523.169 273.55 523.605 272.971 524.115 272.463C524.513 272.048 524.946 271.67 525.411 271.335C528.016 269.445 530.945 269.052 531.969 270.469Z" fill="white"/>
<path opacity="0.3" d="M600.45 366.048C601.474 367.465 600.191 370.168 597.599 372.083C595.007 373.999 592.065 374.366 591.054 372.949C590.483 372.162 591.896 370.968 592.726 369.249L522.819 274.208C523.169 273.576 523.605 272.997 524.115 272.489L592.609 368.082C593.011 367.668 593.444 367.286 593.905 366.94C596.497 365.025 599.426 364.631 600.45 366.048Z" fill="black"/>
<path d="M516.936 268.698C514.745 271.059 513.994 273.946 515.264 275.166L600.411 355.867C601.707 357.074 604.493 356.129 606.684 353.755C608.874 351.38 609.625 348.507 608.355 347.273L523.208 266.572C521.938 265.378 519.126 266.336 516.936 268.698Z" fill="#5D53F3"/>
<path opacity="0.7" d="M523.208 266.585L608.355 347.286C609.651 348.48 608.874 351.38 606.683 353.755C604.493 356.129 601.681 357.061 600.411 355.867L515.264 275.166C514.916 274.723 514.699 274.191 514.637 273.629C514.575 273.068 514.671 272.5 514.914 271.991C515.146 271.303 515.469 270.65 515.873 270.049C516.193 269.585 516.548 269.146 516.935 268.737C519.126 266.336 521.938 265.378 523.208 266.585Z" fill="white"/>
<path opacity="0.3" d="M608.355 347.286C609.651 348.48 608.874 351.38 606.683 353.755C604.493 356.129 601.681 357.061 600.411 355.867C599.711 355.198 600.877 353.768 601.37 351.931L514.914 272.017C515.146 271.329 515.469 270.676 515.873 270.075L601.033 350.789C601.346 350.323 601.697 349.884 602.083 349.477C604.273 347.024 607.085 346.079 608.355 347.286Z" fill="black"/>
<path d="M537.399 526.243L530.919 526.348C524.323 494.978 519.657 456.156 516.754 426.872C516.3 422.28 515.886 417.938 515.458 413.884C515.29 411.955 515.121 410.105 514.966 408.321C514.188 399.517 513.67 392.577 513.333 388.221C513.099 385.072 512.983 383.34 512.983 383.34H536.544L536.324 389.388L535.546 409.344L535.468 411.627L534.976 424.812L534.159 447.261C542.208 478.88 537.399 526.243 537.399 526.243Z" fill="#EBB376"/>
<path d="M590.017 524.564L583.628 525.784C570.836 493.417 558.822 451.971 551.007 423.015C549.802 418.528 548.687 414.33 547.69 410.525C547.69 410.328 547.599 410.144 547.547 409.961C545.577 402.404 544.061 396.381 543.115 392.564L541.987 387.932L565.056 383.891L566.352 393.731L568.283 408.163L568.659 410.997L569.955 420.85L573.467 447.274C586.79 477.056 590.017 524.564 590.017 524.564Z" fill="#EBB376"/>
<path opacity="0.2" d="M568.348 408.189L547.69 410.525C547.69 410.328 547.599 410.144 547.547 409.961C545.577 402.404 544.061 396.381 543.115 392.564L566.443 393.731L568.348 408.189Z" fill="black"/>
<path opacity="0.2" d="M536.272 389.388L535.546 409.344L535.468 411.627L515.51 413.87C515.341 411.942 515.173 410.092 515.017 408.308C514.24 399.504 513.721 392.564 513.384 388.208L536.272 389.388Z" fill="black"/>
<path d="M518.231 548.049C519.439 547.056 520.813 546.292 522.288 545.792C522.288 545.792 526.707 541.357 528.846 528.001L534.626 526.466C535.608 526.229 536.639 526.302 537.58 526.675C538.52 527.047 539.326 527.703 539.888 528.552C540.047 528.79 540.17 529.051 540.251 529.326C540.549 530.759 540.757 532.21 540.873 533.669C541.196 538.552 541.226 543.451 540.963 548.337H539.914L539.499 539.153C539.343 536.018 536.972 539.691 536.298 543.089C535.624 546.487 534.185 550.03 527.42 550.2C519.515 550.318 516.236 550.004 518.231 548.049Z" fill="#263238"/>
<path d="M540.095 528.736C540.471 525.614 540.588 520.182 540.588 520.182L527.731 521.625C527.731 521.625 529.286 527.805 528.003 532.449C534.483 530.652 540.095 528.736 540.095 528.736Z" fill="#263238"/>
<path d="M570.538 548.049C571.747 547.061 573.121 546.301 574.595 545.805C574.595 545.805 579.014 541.371 581.139 528.014L586.932 526.479C587.915 526.242 588.946 526.315 589.886 526.688C590.827 527.061 591.632 527.716 592.194 528.565C592.354 528.803 592.476 529.064 592.557 529.34C592.856 530.772 593.064 532.223 593.179 533.682C593.5 538.565 593.526 543.464 593.257 548.35H592.272L591.857 539.166C591.702 536.031 589.33 539.704 588.656 543.102C587.982 546.5 586.544 550.043 579.766 550.213C571.821 550.318 568.542 550.003 570.538 548.049Z" fill="#263238"/>
<path d="M592.389 528.736C592.778 525.614 592.894 520.182 592.894 520.182L580.038 521.625C580.038 521.625 581.593 527.805 580.31 532.449C586.79 530.652 592.389 528.736 592.389 528.736Z" fill="#263238"/>
<path d="M570.577 401.748L546.121 404.909L545.175 405.028L540.147 386.371L538.851 406.366L512.646 404.975C500.982 335.61 520.927 319.223 520.927 319.223L556.476 326.465C572.573 354.174 568.75 386.371 568.75 386.371L570.577 401.748Z" fill="#5D53F3"/>
<path d="M536.907 232.801C536.907 235.53 535.715 237.734 534.315 237.734C532.915 237.734 531.645 235.53 531.645 232.801C531.645 230.072 532.837 227.868 534.315 227.868C535.792 227.868 536.907 230.072 536.907 232.801Z" stroke="#263238" stroke-width="0.5" stroke-linecap="round" stroke-linejoin="round"/>
<path d="M554.468 249.28C554.373 249.37 554.269 249.449 554.157 249.516C552.678 250.658 550.991 251.491 549.193 251.97C543.944 253.203 540.354 252.468 538.009 250.067C534.73 246.459 533.913 240.07 534.38 232.355C534.461 229.285 535.021 226.248 536.039 223.355C536.039 223.355 536.039 223.237 536.039 223.211C536.039 223.184 536.116 222.988 536.168 222.883C536.811 221.251 537.847 219.808 539.183 218.688C540.519 217.567 542.112 216.803 543.815 216.467C545.291 216.133 546.799 215.961 548.312 215.955C563.177 215.837 565.847 240.739 554.468 249.28Z" fill="#EBB376"/>
<path opacity="0.2" d="M554.157 249.556C552.666 250.631 550.979 251.393 549.193 251.799C543.944 253.032 540.354 252.127 538.009 249.687C541.15 250.473 544.459 250.197 547.43 248.9C548.528 248.49 549.703 248.336 550.868 248.449C552.032 248.563 553.156 248.941 554.157 249.556Z" fill="black"/>
<path d="M555.66 263.135C556.58 267.412 551.098 269.157 551.098 269.157C542.143 265.221 540.484 260.458 540.484 260.458C547.962 256.522 545.797 245.357 545.797 245.357L547.314 246.118L557.98 248.23C557.98 248.23 555.025 253.977 554.636 255.289C552.614 262.177 555.66 263.135 555.66 263.135Z" fill="#EBB376"/>
<path d="M536.026 223.289C536.026 223.289 535.209 233.785 545.098 238.364C545.098 238.364 549.335 249.319 555.569 249.464C564.084 249.674 571.575 237.433 568.633 224.956C564.784 208.765 540.562 207.453 536.026 223.289Z" fill="#263238"/>
<path d="M540.069 235.333C540.069 233.693 541.365 230.925 543.957 231.306C546.549 231.686 548.026 238.22 541.598 239.676C540.626 239.886 540.069 238.784 540.069 235.333Z" fill="#EBB376"/>
<path d="M554.157 212.085C554.157 212.085 544.229 209.54 538.734 213.594C532.319 218.317 529.883 223.197 537.438 230.781C537.438 230.781 554.118 225.31 559.665 226.464C562.907 227.126 566.089 228.061 569.177 229.259C570.383 218.107 559.704 209.802 554.157 212.085Z" fill="#263238"/>
<path d="M540.069 232.801C540.069 232.801 542.661 244.95 538.592 255.315C538.592 255.315 562.179 263.594 570.382 259.094C578.586 254.594 571.069 239.492 570.719 230.781C570.37 222.069 566.637 209.198 554.157 212.085C541.676 214.971 540.069 232.801 540.069 232.801Z" fill="#263238"/>
<path d="M531.58 232.027H541.547" stroke="#263238" stroke-width="0.5" stroke-linecap="round" stroke-linejoin="round"/>
<path opacity="0.2" d="M546.121 404.909L545.175 405.027L540.147 386.371C540.147 386.371 550.93 367.727 547.56 358.019C548.04 358.701 559.652 376.137 546.121 404.909Z" fill="black"/>
<path d="M525.93 262.19C525.93 262.19 537.788 257.913 555.66 263.135C573.532 268.356 574.206 276.058 574.206 276.058C574.206 276.058 562.879 302.049 561.09 331.477L514.512 329.719C514.512 329.719 508.952 288.181 525.93 262.19Z" fill="#263238"/>
<path opacity="0.2" d="M574.206 276.058C574.206 276.058 562.879 302.049 561.09 331.477L514.512 329.719C513.955 324.928 513.67 320.11 513.657 315.287C513.565 308.227 513.998 301.17 514.953 294.177C516.508 283.287 519.709 271.663 525.93 262.138C525.93 262.138 537.788 257.86 555.66 263.082C573.532 268.304 574.206 276.058 574.206 276.058Z" fill="white"/>
<path opacity="0.2" d="M525.282 296C525.282 296 523.351 307.966 513.618 315.339C513.526 308.28 513.959 301.223 514.914 294.229L525.282 296Z" fill="black"/>
<path d="M473.818 261.364L467.947 252.547C467.947 252.547 467.052 248.716 465.912 247.85C464.772 246.984 453.496 242.116 452.135 242.143C450.775 242.169 450.839 251.038 452.135 252.547C453.431 254.056 460.611 257.283 462.503 257.611C464.396 257.939 463.463 257.611 463.463 257.611L468.647 268.107L473.818 261.364Z" fill="#EBB376"/>
<path d="M525.93 262.19C513.353 267.522 501.218 273.867 489.642 281.162L470.681 254.922C470.681 254.922 465.575 256.522 463.683 265.523C463.683 265.523 473.416 303.059 486.065 306.785C498.714 310.511 525.308 295.935 525.308 295.935C525.308 295.935 533.006 276.438 525.93 262.19Z" fill="#263238"/>
<path opacity="0.2" d="M525.93 262.19C513.353 267.522 501.218 273.867 489.642 281.162L470.681 254.922C470.681 254.922 465.575 256.522 463.683 265.523C463.683 265.523 473.416 303.059 486.065 306.785C498.714 310.511 525.308 295.935 525.308 295.935C525.308 295.935 533.006 276.438 525.93 262.19Z" fill="white"/>
<path d="M537.918 260.537C537.918 260.537 542.052 290.503 555.154 291.71C568.257 292.917 574.128 270.718 571.912 268.094C569.696 265.47 552.809 260.34 537.918 260.537Z" fill="#263238"/>
<path opacity="0.3" d="M537.918 260.537C537.918 260.537 542.052 290.503 555.154 291.71C568.257 292.917 574.128 270.718 571.912 268.094C569.696 265.47 552.809 260.34 537.918 260.537Z" fill="white"/>
<path d="M71.7466 536.175H81.3499L82.1405 513.661H72.5371L71.7466 536.175Z" fill="#B97964"/>
<path d="M82.6718 535.047H71.0078C70.8157 535.043 70.6285 535.108 70.4792 535.231C70.3299 535.353 70.2279 535.525 70.1914 535.716L68.2992 544.362C68.2593 544.546 68.2558 544.737 68.289 544.923C68.3222 545.108 68.3914 545.286 68.4926 545.444C68.5938 545.603 68.725 545.74 68.8787 545.847C69.0323 545.953 69.2054 546.029 69.3878 546.067H69.6989C73.4702 546.002 76.1789 545.766 80.9482 545.766C83.8771 545.766 92.6122 546.081 96.7075 546.081C100.803 546.081 101.256 542.053 99.6106 541.685C92.2104 540.045 86.6506 537.749 84.2789 535.637C83.8363 535.242 83.262 535.031 82.6718 535.047Z" fill="#263238"/>
<path d="M83.3328 536.398C83.2888 536.386 83.2493 536.36 83.2193 536.325C83.1894 536.29 83.1702 536.247 83.1643 536.201C83.1562 536.158 83.1618 536.113 83.1804 536.073C83.199 536.033 83.2297 536 83.268 535.978C83.6179 535.755 86.7153 533.827 87.7781 534.378C87.8981 534.434 87.999 534.525 88.0681 534.64C88.1373 534.754 88.1716 534.887 88.1669 535.02C88.2023 535.251 88.1765 535.486 88.0922 535.703C88.008 535.92 87.8682 536.11 87.6873 536.254C87.1508 536.634 86.4993 536.81 85.847 536.752C84.9989 536.726 84.156 536.607 83.3328 536.398ZM83.9938 536.07C85.1143 536.454 86.3373 536.393 87.4152 535.899C87.5274 535.797 87.6132 535.667 87.6651 535.523C87.717 535.379 87.7336 535.225 87.7133 535.073C87.7133 534.889 87.6355 534.797 87.5707 534.797C87.4786 534.75 87.3759 534.727 87.2726 534.732C86.1059 534.964 84.9932 535.418 83.9938 536.07Z" fill="#5D53F3"/>
<path d="M83.268 536.437C83.2341 536.415 83.2068 536.383 83.1886 536.346C83.1704 536.31 83.162 536.269 83.1643 536.228C83.1643 536.096 83.4106 533.302 84.4603 532.383C84.589 532.266 84.7418 532.18 84.9077 532.13C85.0736 532.08 85.2484 532.068 85.4194 532.095C85.5917 532.096 85.7583 532.157 85.8924 532.266C86.0265 532.376 86.1201 532.528 86.1581 532.698C86.3525 533.722 84.4344 535.86 83.4365 536.411H83.3328L83.268 536.437ZM84.8102 532.672C84.1377 533.547 83.7444 534.609 83.6827 535.716C84.6677 534.955 85.8859 533.341 85.7693 532.711C85.7693 532.711 85.7693 532.475 85.4323 532.475H85.3286C85.1376 532.473 84.9527 532.543 84.8102 532.672Z" fill="#5D53F3"/>
<path opacity="0.2" d="M72.5371 513.674H82.1405L81.7258 525.285H72.1224L72.5371 513.674Z" fill="black"/>
<path d="M121.163 536.897L131.077 537.959L132.931 516.338L123.029 515.275L121.163 536.897Z" fill="#B97964"/>
<path d="M132.114 534.732H120.528C120.337 534.733 120.152 534.8 120.004 534.922C119.856 535.043 119.753 535.212 119.712 535.401L117.819 544.06C117.773 544.242 117.763 544.431 117.789 544.617C117.815 544.803 117.878 544.982 117.973 545.143C118.069 545.304 118.195 545.445 118.344 545.556C118.493 545.667 118.663 545.748 118.843 545.792H119.154C122.926 545.726 125.634 545.49 130.416 545.49C133.332 545.49 142.08 545.792 146.163 545.792C150.245 545.792 150.712 541.764 149.066 541.397C141.666 539.77 136.106 537.461 133.734 535.349C133.289 534.946 132.711 534.726 132.114 534.732Z" fill="#263238"/>
<path d="M132.775 536.083C132.731 536.071 132.692 536.045 132.662 536.01C132.632 535.975 132.613 535.932 132.607 535.886C132.597 535.841 132.604 535.794 132.625 535.753C132.646 535.713 132.681 535.681 132.723 535.663C133.06 535.44 136.158 533.512 137.22 534.076C137.341 534.129 137.442 534.217 137.511 534.33C137.581 534.442 137.615 534.573 137.609 534.706C137.641 534.936 137.615 535.171 137.533 535.389C137.452 535.607 137.317 535.8 137.143 535.952C136.597 536.32 135.944 536.491 135.289 536.437C134.441 536.411 133.598 536.292 132.775 536.083ZM133.436 535.768C134.558 536.149 135.781 536.083 136.858 535.585C136.971 535.482 137.057 535.353 137.109 535.209C137.161 535.065 137.177 534.91 137.156 534.758C137.156 534.574 137.078 534.496 137.013 534.496C136.927 534.444 136.828 534.42 136.728 534.43C135.572 534.659 134.472 535.114 133.488 535.768H133.436Z" fill="#5D53F3"/>
<path d="M132.723 536.136C132.688 536.114 132.659 536.083 132.638 536.046C132.618 536.009 132.607 535.968 132.607 535.926C132.607 535.781 132.853 533 133.968 532.082C134.1 531.969 134.252 531.885 134.417 531.833C134.582 531.781 134.755 531.763 134.927 531.78C135.099 531.779 135.267 531.839 135.402 531.949C135.537 532.059 135.63 532.212 135.665 532.383C135.86 533.42 133.942 535.558 132.944 536.096H132.84L132.723 536.136ZM134.253 532.357C133.58 533.227 133.187 534.285 133.125 535.388C134.11 534.64 135.328 533.013 135.212 532.383C135.212 532.383 135.212 532.147 134.875 532.147H134.784C134.588 532.153 134.4 532.227 134.253 532.357Z" fill="#5D53F3"/>
<path opacity="0.2" d="M123.029 515.275L132.931 516.338L131.959 527.49L122.057 526.427L123.029 515.275Z" fill="black"/>
<path d="M76.464 316.258H127.436C132.27 343.036 147.433 437.775 136.508 522.242L119.258 520.077C119.258 520.077 120.852 408.019 105.637 366.573C103.887 388.746 101.749 412.335 99.9994 424.891C95.567 455.789 86.0803 523.291 86.0803 523.291H68.5714C68.5714 523.291 72.1613 458.662 73.8202 428.302C75.6346 395.306 76.464 323.028 76.464 316.258Z" fill="#263238"/>
<path d="M138.529 526.256L117.184 523.042L117.845 517.059L140.046 520.011L138.529 526.256Z" fill="#5D53F3"/>
<path d="M88.2446 523.409H67.5346V517.151L89.0222 516.744L88.2446 523.409Z" fill="#5D53F3"/>
<path opacity="0.2" d="M105.689 366.533C108.19 373.796 110.093 381.257 111.378 388.837C112.804 369.157 107.101 348.165 107.101 348.165L105.689 366.533Z" fill="black"/>
<path d="M75.0514 325.232L73.8849 331.464C73.8849 331.464 109.538 336.134 131.712 336.003L130.935 331.726L75.0514 325.232Z" fill="#5D53F3"/>
<path d="M147.407 271.269C147.407 271.269 159.732 310.629 168.143 313.253C176.554 315.877 197.951 283.353 197.951 283.353C197.951 283.353 217.171 283.169 218.026 281.844C218.881 280.519 213.036 266.808 211.637 266.795C210.237 266.782 193.493 273.158 192.858 274.234C192.223 275.31 173.003 293.914 172.122 293.363C171.24 292.812 163.931 269.419 163.931 269.419L147.407 271.269Z" fill="#B97964"/>
<path d="M200.491 281.227C200.644 281.196 200.796 281.156 200.945 281.109L200.724 280.965C200.654 281.058 200.576 281.146 200.491 281.227Z" fill="#B97964"/>
<path d="M140.409 266.73L141.912 269.524L148.923 282.644L150.388 285.36L170.074 278.433C170.074 278.433 161.883 247.496 159.045 244.321L140.409 266.73Z" fill="#5D53F3"/>
<path opacity="0.4" d="M140.409 266.73L141.912 269.524L148.923 282.644L150.388 285.36L170.074 278.433C170.074 278.433 161.883 247.496 159.045 244.321L140.409 266.73Z" fill="white"/>
<path opacity="0.2" d="M141.912 269.524L148.923 282.644C153.265 274.024 152.008 262.216 152.008 262.216L141.912 269.524Z" fill="black"/>
<path d="M159.045 244.334C155.336 239.998 150.795 236.471 145.697 233.967C140.6 231.464 135.052 230.036 129.393 229.771C110.108 228.852 104.043 230.794 96.9926 237.17C86.6894 246.485 73.872 326.688 73.872 326.688C92.676 331.988 112.21 334.137 131.7 333.051C131.7 333.051 131.933 310.747 138.892 295.777C146.73 279.101 153.463 261.915 159.045 244.334Z" fill="#5D53F3"/>
<path opacity="0.4" d="M73.872 326.688C92.676 331.988 112.209 334.142 131.7 333.064C131.7 333.064 131.7 330.309 132.075 326.098C132.231 324.103 132.464 321.768 132.788 319.249C133.112 316.73 133.579 313.857 134.084 310.996C134.395 309.461 134.758 307.913 135.147 306.378C136.051 302.734 137.283 299.181 138.828 295.764C139.683 293.927 140.512 292.104 141.316 290.319C142.703 287.197 144.024 284.166 145.204 281.267C147.796 275.166 149.999 269.59 151.839 264.709C153.135 261.206 154.302 258.07 155.248 255.381C156.298 252.376 157.127 249.91 157.736 248.073C158.527 245.646 158.916 244.321 158.916 244.321C158.272 243.505 157.579 242.729 156.842 241.998C149.609 234.781 140.046 230.449 129.911 229.797H129.263C114.566 229.101 107.555 230.059 101.93 233.379C100.117 234.477 98.4188 235.761 96.863 237.21C95.4 238.815 94.2482 240.684 93.4675 242.72C91.0721 248.359 89.1051 254.175 87.5837 260.117L86.7283 263.305C85.4323 268.173 84.2141 273.355 83.0477 278.603C82.7107 280.099 82.3867 281.595 82.0627 283.077C81.5832 285.36 81.1037 287.63 80.6501 289.873C79.4837 295.528 78.4339 301.012 77.5138 305.945C76.2178 313.03 75.168 318.96 74.5459 322.647C74.1182 325.245 73.872 326.688 73.872 326.688ZM130.507 230.518C131.807 230.552 133.105 230.652 134.395 230.82C139.579 231.529 147.55 235.74 147.355 237.734C147.161 239.729 144.128 244.819 136.378 243.586C133.678 243.081 131.115 241.999 128.861 240.411C124.584 237.551 121.474 233.68 121.163 232.421C120.774 230.912 125.803 230.4 130.52 230.545L130.507 230.518Z" fill="white"/>
<path d="M113.892 257.257C113.892 257.257 103.68 282.277 101.58 303.072L129.198 306.641C129.198 306.641 141.588 272.83 144.154 262.256C144.154 262.229 122.096 259.999 113.892 257.257Z" fill="#5D53F3"/>
<path opacity="0.4" d="M138.763 263.213L142.599 263.594L139.787 265.798L138.763 263.213Z" fill="white"/>
<path d="M123.729 232.486C125.816 238.522 133.579 241.277 137.648 241.67C139.147 241.91 140.682 241.644 142.016 240.914C143.351 240.183 144.412 239.03 145.035 237.629C145.035 237.629 140.383 235.281 140.849 232.644C141.179 231.031 141.832 229.504 142.767 228.157C143.252 227.388 143.78 226.647 144.348 225.94L136.896 209.763C135.238 216.769 130.144 230.23 123.729 232.486Z" fill="#B97964"/>
<path opacity="0.2" d="M136.598 217.228C133.047 225.1 138.063 230.518 140.849 232.591C141.179 230.979 141.832 229.452 142.767 228.104L136.598 217.228Z" fill="black"/>
<path d="M161.585 196.223C161.585 196.223 163.97 209.553 157.101 214.892C150.232 220.232 149.532 195.331 149.532 195.331L161.585 196.223Z" fill="#B97964"/>
<path opacity="0.4" d="M161.585 196.223C161.585 196.223 163.97 209.553 157.101 214.892C150.232 220.232 149.532 195.331 149.532 195.331L161.585 196.223Z" fill="black"/>
<path d="M137.026 226.11C138.558 228.271 140.747 229.864 143.26 230.644C145.772 231.424 148.467 231.347 150.932 230.427C154.152 229.282 156.818 226.936 158.384 223.867C158.604 223.46 158.799 223.014 158.993 222.555C162.207 214.276 162.881 194.071 154.224 194.819C147.07 195.436 140.072 193.205 136.417 199.463C135.373 201.244 134.76 203.249 134.628 205.315C133.851 214.971 132.944 220.573 137.026 226.11Z" fill="#B97964"/>
<path d="M148.535 210.091C148.379 210.852 148.742 211.547 149.247 211.626C149.753 211.704 150.245 211.114 150.362 210.314C150.479 209.513 150.142 208.857 149.649 208.792C149.157 208.726 148.651 209.303 148.535 210.091Z" fill="#263238"/>
<path d="M157.205 211.337C157.049 212.098 157.425 212.793 157.918 212.872C158.41 212.951 158.916 212.36 159.019 211.56C159.123 210.76 158.812 210.104 158.306 210.025C157.801 209.946 157.308 210.602 157.205 211.337Z" fill="#263238"/>
<path d="M154.392 211.324C154.976 213.827 155.896 216.237 157.127 218.487C156.547 218.793 155.907 218.966 155.254 218.996C154.6 219.025 153.948 218.91 153.343 218.658L154.392 211.324Z" fill="#A24E3F"/>
<path d="M146.254 206.863C146.333 206.887 146.417 206.889 146.497 206.868C146.577 206.847 146.649 206.805 146.707 206.745C147.104 206.331 147.59 206.016 148.128 205.825C148.665 205.634 149.239 205.571 149.805 205.643C149.923 205.667 150.046 205.643 150.147 205.577C150.249 205.511 150.321 205.407 150.349 205.289C150.362 205.23 150.364 205.169 150.353 205.11C150.342 205.051 150.32 204.994 150.287 204.944C150.255 204.894 150.212 204.851 150.163 204.818C150.113 204.784 150.058 204.762 149.999 204.751C149.295 204.646 148.576 204.71 147.901 204.938C147.226 205.166 146.613 205.551 146.111 206.063C146.027 206.151 145.98 206.268 145.98 206.391C145.98 206.513 146.027 206.631 146.111 206.719C146.152 206.773 146.2 206.821 146.254 206.863Z" fill="#263238"/>
<path d="M161.352 208.844C161.435 208.876 161.528 208.876 161.611 208.844C161.669 208.829 161.723 208.803 161.77 208.765C161.816 208.728 161.855 208.682 161.883 208.629C161.911 208.576 161.928 208.517 161.933 208.457C161.937 208.397 161.929 208.337 161.909 208.28C161.704 207.58 161.335 206.941 160.834 206.416C160.334 205.891 159.716 205.495 159.032 205.262C158.975 205.245 158.915 205.239 158.856 205.245C158.796 205.251 158.739 205.27 158.687 205.299C158.635 205.328 158.589 205.368 158.553 205.416C158.516 205.464 158.49 205.519 158.475 205.577C158.443 205.694 158.458 205.818 158.516 205.924C158.574 206.03 158.671 206.108 158.786 206.141C159.322 206.341 159.805 206.664 160.196 207.086C160.588 207.507 160.877 208.015 161.041 208.569C161.067 208.637 161.108 208.698 161.163 208.746C161.217 208.794 161.282 208.827 161.352 208.844Z" fill="#263238"/>
<path d="M147.329 218.999C147.329 218.999 148.923 222.463 152.176 222.332" stroke="#263238" stroke-width="0.5" stroke-linecap="round" stroke-linejoin="round"/>
<path d="M143.195 194.478L143.325 198.755C142.586 199.026 141.976 199.571 141.618 200.28C141.259 200.988 141.179 201.807 141.394 202.573C142.404 206.246 139.903 211.573 137.013 213.515C137.013 213.515 137.013 211.967 135.717 212.203C134.421 212.439 134.019 220.495 136.158 224.549C136.158 224.549 131.583 220.285 130.222 211.665C128.926 203.701 129.172 198.65 130.222 194.832L143.195 194.478Z" fill="#B97964"/>
<path opacity="0.4" d="M143.195 194.478L143.325 198.755C142.586 199.026 141.976 199.571 141.618 200.28C141.259 200.988 141.179 201.807 141.394 202.573C142.404 206.246 139.903 211.573 137.013 213.515C137.013 213.515 137.013 211.967 135.717 212.203C134.421 212.439 134.019 220.495 136.158 224.549C136.158 224.549 131.583 220.285 130.222 211.665C128.926 203.701 129.172 198.65 130.222 194.832L143.195 194.478Z" fill="black"/>
<path d="M129.496 199.608C134.121 200.066 138.789 199.778 143.325 198.755C156.375 196.131 161.935 200.985 161.935 200.985C162.838 200.163 163.55 199.148 164.018 198.014C164.486 196.879 164.7 195.654 164.644 194.425C164.268 190.62 159.045 189.978 159.045 189.978C159.045 189.978 157.477 185.687 154.017 184.388C150.556 183.09 147.083 186.343 147.083 186.343C147.083 186.343 142.767 182.119 137.739 183.326C136.046 183.677 134.524 184.607 133.427 185.959C132.33 187.31 131.725 189.002 131.712 190.752C131.712 190.752 125.816 191.355 125.945 194.425C126.075 197.495 129.496 199.608 129.496 199.608Z" fill="#263238"/>
<path d="M149.545 215.68C151.886 215.68 153.783 213.465 153.783 210.733C153.783 208.002 151.886 205.787 149.545 205.787C147.205 205.787 145.308 208.002 145.308 210.733C145.308 213.465 147.205 215.68 149.545 215.68Z" stroke="#263238" stroke-width="0.5" stroke-linecap="round" stroke-linejoin="round"/>
<path d="M164.436 211.468C164.32 212.289 163.972 213.06 163.436 213.687C162.899 214.314 162.195 214.772 161.409 215.005C160.623 215.239 159.786 215.24 159 215.006C158.213 214.773 157.51 214.315 156.972 213.688C156.435 213.062 156.088 212.292 155.97 211.47C155.853 210.649 155.972 209.811 156.312 209.056C156.651 208.301 157.199 207.661 157.888 207.211C158.577 206.762 159.379 206.523 160.199 206.522C161.406 206.616 162.528 207.188 163.321 208.114C164.114 209.04 164.515 210.245 164.436 211.468Z" stroke="#263238" stroke-width="0.5" stroke-linecap="round" stroke-linejoin="round"/>
<path d="M153.77 211.324C153.77 211.324 155.144 210.458 155.961 211.468" stroke="#263238" stroke-width="0.5" stroke-linecap="round" stroke-linejoin="round"/>
<path d="M145.308 210.733L137.881 209.723C136.908 209.596 135.925 209.865 135.147 210.471L134.823 210.733" stroke="#263238" stroke-width="0.5" stroke-linecap="round" stroke-linejoin="round"/>
<path d="M129.419 212.544C130.163 214.851 131.78 216.767 133.916 217.871C136.754 219.301 138.776 216.887 138.491 213.856C138.231 211.153 136.456 207.086 133.307 206.929C132.634 206.906 131.967 207.053 131.365 207.357C130.764 207.661 130.246 208.113 129.86 208.67C129.474 209.228 129.232 209.874 129.154 210.55C129.077 211.227 129.168 211.912 129.419 212.544Z" fill="#B97964"/>
<path opacity="0.2" d="M82.0627 283.116C94.297 277.973 103.965 256.732 103.965 256.732L97.0186 252.481L87.5837 260.156L86.7283 263.345C85.4323 268.212 84.2141 273.395 83.0477 278.643C82.7107 280.138 82.3867 281.634 82.0627 283.116Z" fill="black"/>
<path d="M149.442 285.373L170.541 277.527L171.15 279.338L150.038 286.948L149.442 285.373Z" fill="#5D53F3"/>
<path d="M94.7748 339.364L33.6159 329.547L27.6346 367.734L88.7935 377.551L94.7748 339.364Z" fill="#5D53F3"/>
<path d="M55.2485 344.085L42.8198 350.606L52.6435 360.695" stroke="white" stroke-width="2" stroke-linecap="round" stroke-linejoin="round"/>
<path d="M67.1198 363.017L79.5355 356.497L69.7248 346.407" stroke="white" stroke-width="2" stroke-linecap="round" stroke-linejoin="round"/>
<path d="M56.9722 361.39L65.3962 345.712" stroke="white" stroke-width="2" stroke-linecap="round" stroke-linejoin="round"/>
<path d="M89.6962 240.595C89.6962 240.595 66.6403 264.014 63.504 268.566C60.3677 273.119 54.3542 323.592 54.3542 323.592C54.3542 323.592 53.0582 324.038 52.9805 325.127C52.9027 326.216 52.7731 340.385 52.9805 341.041C53.1878 341.697 63.7891 348.323 65.3573 346.749C66.9254 345.174 69.1027 329.128 69.1027 329.128L63.504 323.592C63.504 323.592 69.984 286.423 74.0923 280.401C78.2006 274.379 94.945 261.495 94.945 261.495L89.6962 240.595Z" fill="#B97964"/>
<path d="M107.412 231.161C110.769 238.364 108.216 253.531 102.021 258.884C95.4665 264.386 88.5374 269.415 81.2851 273.932L69.984 258.936C69.984 258.936 82.0109 247.05 89.2944 240.201C94.2483 235.339 100.586 232.177 107.412 231.161Z" fill="#5D53F3"/>
<path opacity="0.4" d="M107.412 231.161C110.769 238.364 108.216 253.531 102.021 258.884C95.4665 264.386 88.5374 269.415 81.2851 273.932L69.984 258.936C69.984 258.936 82.0109 247.05 89.2944 240.201C94.2483 235.339 100.586 232.177 107.412 231.161Z" fill="white"/>
<path d="M69.984 257.979L68.5843 259.907L80.3909 275.533L82.0627 274.326L69.984 257.979Z" fill="#5D53F3"/>
</svg>
